<?xml version="1.0" encoding="iso-8859-1"?>
<!-- Generator: Adobe Illustrator 19.0.0, SVG Export Plug-In . SVG Version: 6.00 Build 0)  -->
<svg version="1.1" id="Layer_1" xmlns="http://www.w3.org/2000/svg" xmlns:xlink="http://www.w3.org/1999/xlink" x="0px" y="0px"
	 viewBox="0 0 512 512" style="enable-background:new 0 0 512 512;" xml:space="preserve">
<path style="fill:#6F934F;" d="M248.826,499.847l70.043-87.169c0.044-0.055,0.089-0.108,0.137-0.158l64.058-68.634
	c1.212-1.298,3.304-1.174,4.354,0.258l114.255,155.803c1.372,1.87,0.036,4.507-2.284,4.507H251.032
	C248.655,504.453,247.336,501.7,248.826,499.847z"/>
<path style="fill:#526D3E;" d="M299.596,436.663l60.014,32.425l26.116-126.027c-0.22-0.047-0.445-0.064-0.67-0.059
	c-0.027,0.001-0.053,0.002-0.08,0.003c-0.193,0.01-0.385,0.043-0.573,0.092c-0.045,0.012-0.092,0.023-0.137,0.037
	c-0.17,0.054-0.334,0.13-0.494,0.218c-0.049,0.027-0.1,0.046-0.147,0.077c-0.197,0.124-0.384,0.271-0.552,0.449v0.001
	l-34.033,36.463l-30.031,32.176c-0.047,0.051-0.094,0.103-0.137,0.158L299.596,436.663z"/>
<path style="fill:#6F934F;" d="M10.013,500.121l179.073-263.344c1.082-1.592,3.418-1.623,4.542-0.061l189.607,263.344
	c1.32,1.833,0.01,4.392-2.25,4.392H12.305C10.079,504.453,8.761,501.962,10.013,500.121z"/>
<path style="fill:#526D3E;" d="M189.086,236.777l-23.065,33.919l-0.006,0.01L11.05,498.596l-1.037,1.524
	c-1.251,1.841,0.067,4.332,2.293,4.332h114.773l64.527-268.861C190.659,235.514,189.683,235.899,189.086,236.777z"/>
<path style="fill:#CD5838;" d="M190.788,135.262V10.253c0-1.495,1.213-2.708,2.708-2.708h188.343c2.012,0,3.322,2.118,2.422,3.918
	l-30.042,60.083c-0.382,0.762-0.382,1.66,0,2.422l30.042,60.083c0.9,1.8-0.409,3.918-2.422,3.918H193.495
	C192,137.97,190.788,136.757,190.788,135.262z"/>
<path style="fill:#B72C11;" d="M243.995,7.545h-50.499c-1.495,0-2.708,1.213-2.708,2.708v125.009c0,1.495,1.213,2.708,2.708,2.708
	h50.499c1.79,0,3.241-1.451,3.241-3.241V10.786C247.236,8.996,245.785,7.545,243.995,7.545z"/>
<path d="M510.434,499.133L391.866,337.45c-0.033-0.045-0.071-0.084-0.106-0.128c-0.117-0.153-0.239-0.302-0.366-0.446
	c-0.068-0.077-0.137-0.152-0.208-0.226c-0.122-0.127-0.248-0.249-0.378-0.368c-0.081-0.074-0.162-0.15-0.246-0.221
	c-0.132-0.111-0.267-0.213-0.404-0.316c-0.087-0.065-0.172-0.133-0.263-0.194c-0.161-0.109-0.327-0.208-0.495-0.306
	c-0.071-0.042-0.14-0.088-0.213-0.128c-0.244-0.132-0.494-0.25-0.749-0.357c-0.054-0.023-0.11-0.039-0.165-0.059
	c-0.208-0.081-0.418-0.156-0.633-0.22c-0.08-0.024-0.162-0.041-0.243-0.063c-0.194-0.051-0.388-0.098-0.586-0.135
	c-0.091-0.016-0.181-0.028-0.273-0.042c-0.191-0.028-0.384-0.052-0.578-0.067c-0.045-0.003-0.091-0.013-0.136-0.016
	c-0.053-0.003-0.106,0.002-0.158,0c-0.19-0.008-0.38-0.008-0.573-0.001c-0.099,0.003-0.198,0.006-0.297,0.014
	c-0.183,0.013-0.368,0.035-0.553,0.059c-0.105,0.014-0.209,0.028-0.314,0.046c-0.056,0.01-0.112,0.014-0.169,0.025
	c-0.127,0.025-0.247,0.064-0.372,0.094c-0.098,0.025-0.197,0.046-0.294,0.074c-0.198,0.057-0.39,0.125-0.581,0.196
	c-0.071,0.027-0.144,0.05-0.215,0.079c-0.239,0.097-0.471,0.206-0.696,0.323c-0.022,0.012-0.045,0.02-0.067,0.032
	c-0.513,0.274-0.99,0.6-1.425,0.971c-0.046,0.039-0.088,0.083-0.134,0.123c-0.165,0.147-0.324,0.297-0.475,0.456
	c-0.022,0.022-0.044,0.04-0.066,0.063l-58.998,63.213L199.411,231.833v-86.317h185.936c2.803,0,5.405-1.451,6.877-3.834
	c1.472-2.383,1.607-5.359,0.354-7.865l-30.529-61.058l30.529-61.058c1.254-2.506,1.119-5.482-0.354-7.865S388.149,0,385.347,0
	h-194.02c-4.466,0-8.084,3.62-8.084,8.084v223.868L1.4,499.368c-1.685,2.476-1.862,5.682-0.46,8.328
	c1.401,2.646,4.151,4.302,7.145,4.302h269.443c0.009,0,0.017,0.002,0.027,0.002s0.018-0.002,0.027-0.002h140.057
	c0.012,0,0.024,0.001,0.036,0.001c0.011,0,0.022-0.001,0.032-0.001h86.207c3.046,0,5.834-1.713,7.211-4.43
	C512.503,504.85,512.236,501.59,510.434,499.133z M199.411,16.168h172.856L345.78,69.142c-1.138,2.275-1.138,4.955,0,7.23
	l26.487,52.974H199.411V16.168z M283.459,495.829l-24.216-75.674c-1.071-3.348-4.184-5.62-7.699-5.62l0,0
	c-5.477,0-9.369,5.331-7.699,10.548l22.638,70.746H23.359l165.324-243.124l42.559,132.999c1.071,3.348,4.184,5.62,7.699,5.62l0,0
	c5.477,0,9.369-5.331,7.699-10.548l-32.068-100.211l154.992,215.264H283.459z M389.488,495.829l-59.419-82.525l50.439-54.042
	l27.314,136.568H389.488z M424.312,495.829l-23.869-119.344l87.518,119.344H424.312z"/>
<g>
</g>
<g>
</g>
<g>
</g>
<g>
</g>
<g>
</g>
<g>
</g>
<g>
</g>
<g>
</g>
<g>
</g>
<g>
</g>
<g>
</g>
<g>
</g>
<g>
</g>
<g>
</g>
<g>
</g>
</svg>
