<svg id="_x31__x2C_5" enable-background="new 0 0 24 24" height="512" viewBox="0 0 24 24" width="512" xmlns="http://www.w3.org/2000/svg"><g><path d="m16.25 3.457c0-1.398-1.123-2.53-2.507-2.53h-10.486c-1.385 0-2.507 1.133-2.507 2.53v14.263c0 1.398 1.123 2.53 2.507 2.53h11.169c1.007 0 1.824-.824 1.824-1.84z" fill="#eceff1"/></g><g><circle cx="8.5" cy="5" fill="#90a4ae" r="1.8"/></g><g><path d="m11.425 11.8h-5.85c-.373 0-.675-.302-.675-.675v-.45c0-1.365 1.11-2.475 2.475-2.475h2.25c1.365 0 2.475 1.11 2.475 2.475v.45c0 .373-.302.675-.675.675z" fill="#90a4ae"/></g><g><path d="m20.319 23.233-2.819-1.918-2.819 1.918c-.516.349-1.186-.127-1.034-.724l.878-3.465-2.638-2.253c-.461-.393-.207-1.152.4-1.187l3.361-.19 1.218-3.321c.216-.588 1.052-.588 1.267 0l1.218 3.321 3.361.19c.607.035.861.794.4 1.187l-2.638 2.253.878 3.465c.155.606-.525 1.069-1.033.724z" fill="#ffc107"/></g><g><path d="m21.054 24c-.147 0-.294-.043-.422-.13l-3.132-2.131-3.132 2.131c-.257.175-.596.173-.852-.006-.255-.178-.374-.497-.297-.798l.975-3.85-2.932-2.503c-.233-.199-.321-.52-.224-.81.098-.29.363-.492.668-.509l3.735-.211 1.354-3.69c.109-.297.391-.493.705-.493s.596.196.704.492l1.354 3.69 3.735.211c.306.018.57.219.668.509.098.291.009.611-.224.81l-2.932 2.503.975 3.85c.077.302-.042.62-.297.798-.129.092-.279.137-.429.137zm-3.554-3.918c.147 0 .294.043.422.13l1.919 1.306-.604-2.385c-.07-.276.023-.569.24-.754l1.865-1.593-2.362-.134c-.299-.017-.559-.21-.662-.491l-.818-2.233-.819 2.233c-.103.281-.363.474-.662.491l-2.362.134 1.865 1.593c.217.186.31.478.24.754l-.604 2.385 1.919-1.306c.129-.087.276-.13.423-.13z"/></g><g><path d="m8.84 15h-4.09c-.414 0-.75-.336-.75-.75s.336-.75.75-.75h4.09c.414 0 .75.336.75.75s-.336.75-.75.75z"/></g><g><path d="m8.25 18h-3.5c-.414 0-.75-.336-.75-.75s.336-.75.75-.75h3.5c.414 0 .75.336.75.75s-.336.75-.75.75z"/></g><g><path d="m8.5 7c-1.103 0-2-.897-2-2s.897-2 2-2 2 .897 2 2-.897 2-2 2zm0-2.5c-.276 0-.5.224-.5.5s.224.5.5.5.5-.224.5-.5-.224-.5-.5-.5z"/></g><g><path d="m11.75 12c-.414 0-.75-.336-.75-.75v-.5c0-.689-.561-1.25-1.25-1.25h-2.5c-.689 0-1.25.561-1.25 1.25v.5c0 .414-.336.75-.75.75s-.75-.336-.75-.75v-.5c0-1.517 1.233-2.75 2.75-2.75h2.5c1.517 0 2.75 1.233 2.75 2.75v.5c0 .414-.336.75-.75.75z"/></g><g><path d="m10.25 21h-7.5c-1.517 0-2.75-1.233-2.75-2.75v-15.5c0-1.517 1.233-2.75 2.75-2.75h11.5c1.517 0 2.75 1.233 2.75 2.75v5.5c0 .414-.336.75-.75.75s-.75-.336-.75-.75v-5.5c0-.689-.561-1.25-1.25-1.25h-11.5c-.689 0-1.25.561-1.25 1.25v15.5c0 .689.561 1.25 1.25 1.25h7.5c.414 0 .75.336.75.75s-.336.75-.75.75z"/></g></svg>