<?xml version="1.0" encoding="iso-8859-1"?>
<!-- Generator: Adobe Illustrator 21.0.0, SVG Export Plug-In . SVG Version: 6.00 Build 0)  -->
<svg xmlns="http://www.w3.org/2000/svg" xmlns:xlink="http://www.w3.org/1999/xlink" version="1.1" id="Capa_1" x="0px" y="0px" viewBox="0 0 511 511" style="enable-background:new 0 0 511 511;" xml:space="preserve" width="512" height="512">
<g>
	<g>
		<circle style="fill:#7C7B74;" cx="255.5" cy="255.5" r="248"/>
		<circle style="fill:#EFEEEE;" cx="255.5" cy="255.5" r="208"/>
		<path style="fill:#CECDCB;" d="M287.5,439.5c-114.875,0-208-93.125-208-208c0-60.903,26.178-115.69,67.893-153.73    C87.494,114.282,47.5,180.219,47.5,255.5c0,114.875,93.125,208,208,208c53.972,0,103.14-20.56,140.107-54.27    C364.103,428.434,327.095,439.5,287.5,439.5z"/>
		<path style="fill:#F5B9B9;" d="M255.5,91.5c-90.43,0-164,73.57-164,164s73.57,164,164,164v-24c-77.196,0-140-62.804-140-140    s62.804-140,140-140s140,62.804,140,140h24C419.5,165.07,345.93,91.5,255.5,91.5z"/>
		<g>
			<path style="fill:#EB7373;" d="M255.5,91.5v24c77.196,0,140,62.804,140,140h24C419.5,165.07,345.93,91.5,255.5,91.5z"/>
		</g>
		<path style="fill:#FAD677;" d="M279.404,257.634l23.044-85.871l-61.239,64.457c-2.644,1.957-4.93,4.487-6.644,7.543    c-6.482,11.562-2.364,26.189,9.197,32.671c11.562,6.482,26.189,2.364,32.671-9.197    C278.148,264.181,279.113,260.911,279.404,257.634z"/>
		<path style="fill:#F6BB1D;" d="M275.63,199.99l-11.174,41.639c-0.29,3.277-1.256,6.547-2.969,9.603    c-5.824,10.389-18.223,14.762-29.067,10.841c1.676,5.884,5.586,11.132,11.343,14.36c11.562,6.482,26.189,2.365,32.671-9.197    c1.713-3.056,2.679-6.326,2.969-9.603l23.044-85.871L275.63,199.99z"/>
	</g>
	<g>
		<path d="M436.166,74.834C387.908,26.576,323.747,0,255.5,0S123.092,26.576,74.834,74.834C26.577,123.092,0,187.253,0,255.5    s26.577,132.408,74.834,180.666C123.092,484.424,187.253,511,255.5,511s132.408-26.576,180.666-74.834    C484.423,387.908,511,323.747,511,255.5S484.423,123.092,436.166,74.834z M255.5,496C122.888,496,15,388.112,15,255.5    S122.888,15,255.5,15S496,122.888,496,255.5S388.112,496,255.5,496z"/>
		<path d="M446.13,154.91c-1.936-3.662-6.474-5.063-10.136-3.124c-3.662,1.936-5.061,6.474-3.125,10.136    C448.001,190.541,456,222.9,456,255.5C456,366.056,366.056,456,255.5,456S55,366.056,55,255.5S144.944,55,255.5,55    c62.13,0,119.739,28.109,158.054,77.119c2.551,3.265,7.266,3.841,10.528,1.289c3.263-2.551,3.841-7.265,1.29-10.527    C384.194,70.209,322.278,40,255.5,40c-57.562,0-111.679,22.416-152.381,63.118C62.416,143.821,40,197.938,40,255.5    s22.416,111.679,63.119,152.382C143.821,448.584,197.938,471,255.5,471s111.679-22.416,152.381-63.118    C448.584,367.179,471,313.062,471,255.5C471,220.466,462.4,185.683,446.13,154.91z"/>
		<path d="M427,255.5C427,160.935,350.065,84,255.5,84S84,160.935,84,255.5S160.935,427,255.5,427c4.142,0,7.5-3.357,7.5-7.5v-24    c0-4.143-3.358-7.5-7.5-7.5C182.439,388,123,328.561,123,255.5S182.439,123,255.5,123S388,182.439,388,255.5    c0,4.143,3.358,7.5,7.5,7.5h24C423.642,263,427,259.643,427,255.5z M108,255.5c0,78.815,62.142,143.391,140,147.312v9.011    c-82.828-3.924-149-72.54-149-156.322c0-83.779,66.175-152.389,149-156.316v9.006C170.14,112.108,108,176.683,108,255.5z     M402.812,248C399.016,172.626,338.374,111.984,263,108.19v-9.01c80.342,3.81,145.016,68.477,148.823,148.819H402.812z"/>
		<path d="M286.806,258.988l22.886-85.281c0.865-3.224-0.57-6.724-3.449-8.412c-2.971-1.742-6.859-1.197-9.232,1.302l-60.818,64.015    c-3.344,2.589-6.09,5.776-8.168,9.483c-8.494,15.151-3.079,34.388,12.072,42.882c11.567,6.484,26.379,4.875,36.3-3.902    c2.633-2.329,4.862-5.104,6.581-8.17C285.054,267.198,286.341,263.192,286.806,258.988z M272.16,255.689    c-0.113,0.42-0.188,0.849-0.227,1.282c-0.207,2.33-0.894,4.551-2.041,6.598c-4.45,7.936-14.525,10.77-22.461,6.323    c-7.936-4.449-10.772-14.525-6.323-22.462c1.148-2.048,2.683-3.791,4.563-5.183c0.35-0.259,0.676-0.547,0.976-0.862l40.907-43.057    L272.16,255.689z"/>
		<path d="M277.5,307c-2.486-3.314-7.186-3.985-10.5-1.5l-20,15v-9c0-4.143-3.358-7.5-7.5-7.5s-7.5,3.357-7.5,7.5v48    c0,4.143,3.358,7.5,7.5,7.5s7.5-3.357,7.5-7.5v-9l20,15c3.27,2.452,8.05,1.768,10.5-1.5c2.485-3.313,1.813-8.015-1.5-10.5l-24-18    l24-18C279.313,315.015,279.985,310.313,277.5,307z"/>
		<path d="M391.5,367c4.142,0,7.5-3.357,7.5-7.5v-48c0-4.143-3.358-7.5-7.5-7.5s-7.5,3.357-7.5,7.5v16.525    c-0.166-0.011-0.331-0.025-0.5-0.025H367v-16.5c0-4.143-3.358-7.5-7.5-7.5s-7.5,3.357-7.5,7.5v48c0,4.143,3.358,7.5,7.5,7.5    s7.5-3.357,7.5-7.5V343h16.5c0.169,0,0.334-0.014,0.5-0.025V359.5C384,363.643,387.358,367,391.5,367z"/>
		<path d="M299.5,367c4.142,0,7.5-3.357,7.5-7.5V343h24.5c4.142,0,7.5-3.357,7.5-7.5v-24c0-4.143-3.358-7.5-7.5-7.5h-32    c-4.142,0-7.5,3.357-7.5,7.5v48C292,363.643,295.358,367,299.5,367z M307,319h17v9h-17V319z"/>
	</g>
</g>















</svg>
