<svg id="Layer_2" enable-background="new 0 0 64 64" height="512" viewBox="0 0 64 64" width="512" xmlns="http://www.w3.org/2000/svg"><path d="m48.932 21.669h-6.899c-.747 0-.927.433-.397.963l2.196 2.196-7.308 7.308-4.113-4.114c-.262-.262-.606-.392-.952-.396h-.005c-.004 0-.007 0-.01 0l-5.715-.012-9.169 14.579h5.725v-.001c.353.002.706-.128.973-.395l8.191-8.193-.669 4.51h5.738c.352.002.702-.131.968-.396l7.099-7.097h5.234c.281.045.473-.196.473-.691v-6.898c-.001-.749-.612-1.363-1.36-1.363z" fill="#efc36a"/><path d="m16.56 42.693c-.182 0-.35-.099-.438-.258s-.083-.354.014-.508l9.169-14.578c.092-.146.228-.2.424-.234l5.715.012c.513.005.975.198 1.32.543l3.759 3.76 6.601-6.601-1.843-1.843c-.551-.552-.479-1.005-.388-1.226s.36-.591 1.139-.591h6.899c1.025 0 1.859.835 1.859 1.862v6.898c0 .565-.202.855-.371 1-.188.159-.424.225-.681.185l-4.948.006-6.952 6.951c-.354.354-.8.57-1.324.543h-5.735c-.146 0-.284-.063-.378-.173-.095-.11-.138-.256-.116-.4l.447-3.013-7.122 7.122c-.35.35-.816.542-1.316.542-.005 0-.009 0-.014 0zm.905-1h4.819.004c.237 0 .454-.088.615-.25l8.191-8.193c.153-.152.387-.188.578-.093.193.097.302.307.27.52l-.584 3.937h5.159c.225-.005.451-.088.614-.25l7.099-7.097c.094-.094.221-.146.354-.146h5.19c.009-.041.017-.103.017-.191v-6.898c0-.475-.386-.862-.859-.862h-6.899c-.054 0-.099.003-.135.008.022.029.053.064.091.103l2.196 2.196c.195.195.195.512 0 .707l-7.308 7.308c-.188.188-.52.188-.707 0l-4.113-4.114c-.159-.159-.373-.247-.604-.25l-5.449-.012z" fill="#63312d"/><path d="m43.162 21.669h-6.898c-.748 0-.928.433-.398.963l2.197 2.196-7.309 7.308-4.113-4.114c-.529-.53-1.394-.53-1.924 0l-10.501 10.503c-.528.529-.528 1.396 0 1.924l1.347 1.348c.529.527 1.396.527 1.925 0l8.191-8.193 4.113 4.114c.529.529 1.394.529 1.924 0l9.618-9.616 2.226 2.226c.529.531.962.35.962-.398v-6.898c0-.749-.612-1.363-1.36-1.363z" fill="#f9dd9d"/><path d="m16.216 40.449c-.528-.529-.528-1.396 0-1.924l10.463-10.464-.038-.038c-.529-.53-1.394-.53-1.924 0l-10.501 10.502c-.528.529-.528 1.396 0 1.924l1.347 1.348c.529.527 1.396.527 1.925 0l.038-.038z" fill="#ffeecf"/><path d="m43.162 21.669h-4.898-2c-.748 0-.928.433-.398.963l.352.353 1.846 1.844-7.308 7.306 1 1 8.308-8.306-1.849-1.847h4.948c.748 0 1.36.613 1.36 1.362v-1.313c-.001-.748-.613-1.362-1.361-1.362z" fill="#ffeecf"/><path d="m16.524 42.693c-.476 0-.952-.181-1.315-.542l-1.347-1.348c-.725-.726-.725-1.906 0-2.631l10.501-10.502c.7-.701 1.931-.701 2.631 0l3.76 3.76 6.602-6.601-1.844-1.843c-.551-.552-.479-1.005-.388-1.226s.361-.591 1.14-.591h6.898c1.025 0 1.86.835 1.86 1.862v6.898c0 .78-.371 1.049-.592 1.141s-.673.163-1.225-.39l-1.872-1.872-9.265 9.263c-.727.725-1.906.724-2.631 0l-3.76-3.76-7.838 7.84c-.361.361-.838.542-1.315.542zm9.155-14.568c-.23 0-.447.089-.608.251l-10.502 10.502c-.335.335-.335.882 0 1.217l1.347 1.348c.336.334.882.334 1.218 0l8.191-8.193c.188-.188.52-.188.707 0l4.113 4.114c.335.335.882.335 1.217 0l9.618-9.616c.195-.195.512-.195.707 0l2.227 2.226c.038.038.071.067.101.09.005-.037.008-.082.008-.135v-6.898c0-.475-.386-.862-.86-.862h-6.898c-.054 0-.099.003-.136.008.022.029.053.064.091.103l2.197 2.196c.094.094.146.221.146.354s-.053.26-.146.354l-7.309 7.308c-.195.195-.512.195-.707 0l-4.113-4.114c-.163-.163-.379-.253-.609-.253z" fill="#63312d"/><path d="m32 60.833c-15.898 0-28.833-12.935-28.833-28.833 0-15.899 12.935-28.833 28.833-28.833s28.833 12.934 28.833 28.833c0 15.898-12.935 28.833-28.833 28.833zm0-52.666c-13.142 0-23.833 10.691-23.833 23.833s10.691 23.834 23.833 23.834c13.141 0 23.833-10.692 23.833-23.834s-10.692-23.833-23.833-23.833z" fill="#84dbff"/><path d="m5.167 32c0-15.563 12.396-28.278 27.833-28.808-.333-.011-.665-.025-1-.025-15.898 0-28.833 12.934-28.833 28.833s12.935 28.834 28.833 28.834c.335 0 .667-.014 1-.025-15.437-.531-27.833-13.246-27.833-28.809z" fill="#caf4ff"/><path d="m32 61.333c-16.174 0-29.333-13.159-29.333-29.333 0-16.175 13.159-29.333 29.333-29.333s29.333 13.159 29.333 29.333-13.159 29.333-29.333 29.333zm0-57.666c-15.623 0-28.333 12.709-28.333 28.333s12.71 28.334 28.333 28.334 28.333-12.711 28.333-28.334c0-15.624-12.71-28.333-28.333-28.333zm0 52.666c-13.417 0-24.333-10.916-24.333-24.333 0-13.418 10.916-24.333 24.333-24.333s24.333 10.916 24.333 24.333-10.916 24.333-24.333 24.333zm0-47.666c-12.866 0-23.333 10.467-23.333 23.333s10.467 23.334 23.333 23.334 23.333-10.468 23.333-23.334-10.467-23.333-23.333-23.333z" fill="#63312d"/></svg>